# xmcd
#
# Track frame offsets: 
#        150
#        12947
#        28997
#        41328
#        58123
#        69708
#        87901
#        100012
#        111724
#        129227
#        143255
#        157774
#        168562
#        182040
#        190919
#        202544
#
# Disc length: 2859 seconds
#
# Revision: 0
# Processed by: cddbd v1.5.2PL0 Copyright (c) Steve Scherf et al.
# Submitted via: ExactAudioCopy v0.95b4
#
DISCID=ce0b2910
DTITLE=Lynn Anderson - Lynn Anderson
DYEAR=2008
DGENRE=Country
TTITLE0=Rose Garden
TTITLE1=The Devil Went Down To Georgia
TTITLE2=Stand By Your Man
TTITLE3=Blue Bayou
TTITLE4=We've Just Begun
TTITLE5=Midnight Train To Georgia
TTITLE6=How Can I Unlove You
TTITLE7=You're My Man
TTITLE8=Close To You
TTITLE9=Cry
TTITLE10=Faithless Love
TTITLE11=Heaven's Just A Sin Away
TTITLE12=Keep Me In Mind
TTITLE13=Ride, Ride, Ride
TTITLE14=Rodeo Cowboy
TTITLE15=You Don't Have To Say You Love Me
EXTD=
EXTT0=
EXTT1=
EXTT2=
EXTT3=
EXTT4=
EXTT5=
EXTT6=
EXTT7=
EXTT8=
EXTT9=
EXTT10=
EXTT11=
EXTT12=
EXTT13=
EXTT14=
EXTT15=
PLAYORDER=
